<?xml version="1.0" encoding="utf-8"?>
<!-- Generator: Adobe Illustrator 18.0.0, SVG Export Plug-In . SVG Version: 6.00 Build 0)  -->
<!DOCTYPE svg PUBLIC "-//W3C//DTD SVG 1.1//EN" "http://www.w3.org/Graphics/SVG/1.1/DTD/svg11.dtd">
<svg version="1.1" id="logo" xmlns="http://www.w3.org/2000/svg" xmlns:xlink="http://www.w3.org/1999/xlink" x="0px" y="0px"
	 viewBox="17.5 228.7 566.9 566.9" enable-background="new 17.5 228.7 566.9 566.9" xml:space="preserve">
<rect x="-45" y="166.2" fill="#FFFFFF" stroke="#000000" stroke-miterlimit="10" width="692" height="692"/>
<polygon id="triangle" fill="#F05223" points="508.7,431.4 86.6,509.8 305.7,657 "/>
<g id="Layer_2">
	<g opacity="0.75">
		<path fill="#444546" d="M438.7,453H157.6c-6.2,0-11.2,5-11.2,11.2v169c0,6.2,5,11.2,11.2,11.2h281.1c6.2,0,11.2-5,11.2-11.2v-169
			C449.9,458,444.8,453,438.7,453z M298.1,621.6c-40.3,0-72.8-32.6-72.8-72.8c0-40.3,32.6-72.8,72.8-72.8s72.8,32.6,72.8,72.8
			C371,589,338.4,621.6,298.1,621.6z"/>
		<circle fill="#444546" cx="298.1" cy="548.7" r="58.7"/>
		<path fill="#444546" d="M413.4,468.8h-74.7c-6.2,0-11.2-5-11.2-11.2v-14.5c0-6.2,5-11.2,11.2-11.2h74.7c6.2,0,11.2,5,11.2,11.2
			v14.5C424.6,463.8,419.5,468.8,413.4,468.8z"/>
	</g>
</g>
</svg>
