<?xml version="1.0" encoding="utf-8"?>
<!-- Generator: Adobe Illustrator 18.0.0, SVG Export Plug-In . SVG Version: 6.00 Build 0)  -->
<!DOCTYPE svg PUBLIC "-//W3C//DTD SVG 1.1//EN" "http://www.w3.org/Graphics/SVG/1.1/DTD/svg11.dtd">
<svg version="1.1" id="logo" xmlns="http://www.w3.org/2000/svg" xmlns:xlink="http://www.w3.org/1999/xlink" x="0px" y="0px"
	 viewBox="-44.5 310.9 673.9 244.1" enable-background="new -44.5 310.9 673.9 244.1" xml:space="preserve">
<g>
	<path d="M5.5,538.5l8.9-17l22.9-44.7l2.6-5.5h5.5c1.8,0,3.7,0,5.9,0l8.5,24l15.9,43.3H71c-0.7,0-2.6,0-5.2,0
		c-0.7-3.3-2.2-7.8-4.4-13.7c-2.2-5.9-3.7-10.7-5.2-14.4h-27l-7,14.8l-6.3,13.7h-5.2C10,538.5,8.1,538.5,5.5,538.5z M32.2,503.8
		h22.2l-9.2-25.9L32.2,503.8z"/>
	<path d="M81.3,537.8l-0.4-3.7c0-0.4,0-1.5-0.4-3.7c5.2,2.2,9.6,3.3,14.1,3.3c2.2,0,4.1-0.4,5.5-0.7c1.5-0.4,2.6-1.5,3.3-2.6
		c0.7-1.1,1.1-2.2,1.1-3.7c0-0.7,0-1.5-0.4-2.2c-0.4-0.7-0.4-1.5-1.1-1.8c-0.4-0.7-1.1-1.5-1.8-2.2c-0.7-0.7-2.6-2.2-5.2-4.4
		s-4.8-3.7-5.9-5.2c-1.1-1.5-2.6-2.6-3.3-3.7c-1.1-1.1-1.8-2.6-2.2-3.7c-0.4-1.1-0.7-2.6-0.7-4.1c0-2.2,0.7-4.1,1.8-6.3
		s3.3-3.3,5.9-4.4c2.6-1.1,5.5-1.5,8.9-1.5c3.7,0,7.8,0.4,12.6,1.5c0,2.6,0.4,4.8,0.4,7c-3.7-1.5-7.4-2.2-10.7-2.2
		c-1.8,0-3.7,0.4-5.5,0.7c-1.5,0.4-3,1.1-3.7,2.2c-0.7,1.1-1.1,2.2-1.1,3.3c0,0.7,0,1.5,0.4,2.2s0.7,1.5,1.5,2.2
		c0.7,0.7,1.5,1.8,2.6,2.6c1.1,0.7,3,2.2,5.5,4.8c3,2.2,4.8,4.1,5.9,5.2c1.1,1.1,1.8,2.2,2.6,3.3c0.7,1.1,1.5,2.2,1.5,3.3
		c0.4,1.1,0.4,2.2,0.4,3.3c0,2.2-0.7,4.4-2.2,6.3c-1.5,1.8-3.3,3.3-5.9,4.4c-2.6,1.1-5.5,1.5-9.2,1.5c-1.5,0-3,0-4.8-0.4
		s-3.7-0.4-4.8-0.7C84.7,538.5,83.2,538.2,81.3,537.8z"/>
	<path d="M148.6,532.2c-0.4,1.5-0.7,3.7-1.1,6.3c-2.2,0.4-4.1,0.7-5.2,1.1c-1.5,0-2.6,0.4-3.7,0.4c-3,0-5.2-0.4-7-1.1
		c-1.8-0.7-3.3-1.8-4.1-3.7c-1.1-1.5-1.5-3.7-1.5-6.7c0-0.4,0-1.1,0-1.8c0-0.7,0.4-4.1,0.4-9.6l1.1-22.2h-6.7c0-1.5,0.4-3.3,0.4-5.9
		h6.7c0-1.8,0.4-4.8,0.4-9.2c3-0.7,5.5-1.1,7.8-1.8c-0.4,4.8-0.4,8.5-0.4,11.1h13.7c0,2.2-0.4,4.1-0.4,5.9h-13.7l-1.5,27.7v2.2
		c0,2.2,0.4,4.1,0.7,5.5c0.4,1.5,1.5,2.2,2.6,2.6c1.1,0.4,2.2,0.7,3.3,0.7c0.7,0,1.8,0,2.6-0.4C144.6,533,146.4,532.6,148.6,532.2z"
		/>
	<path d="M180.8,487.5c3.3,0,6.7,0.4,10,1.5c3,1.1,5.9,2.6,8.1,4.8c2.2,2.2,4.1,4.8,5.2,8.1c1.1,3.3,1.8,6.7,1.8,10.4
		c0,4.1-0.7,7.8-1.8,11.1c-1.1,3.7-3,6.7-5.2,9.2c-2.2,2.6-5.2,4.4-8.5,5.5c-3.3,1.1-7,1.8-10.7,1.8s-6.7-0.4-10-1.5
		c-3-1.1-5.9-2.6-8.1-4.8c-2.2-2.2-4.1-4.8-5.2-8.1c-1.1-3.3-1.8-6.7-1.8-10.4c0-5.2,1.1-10.4,3.3-14.4s5.2-7.4,9.6-9.6
		C171.6,488.6,176,487.5,180.8,487.5z M180.4,493.8c-3.3,0-6.3,0.7-9.2,2.6s-4.8,4.1-6.3,7.4c-1.5,3.3-1.8,7-1.8,11.1
		c0,3.3,0.7,6.7,1.8,9.2c1.1,3,3,5.2,5.5,6.7c2.6,1.5,5.5,2.6,9.2,2.6c2.6,0,4.8-0.4,7-1.1c2.2-0.7,4.1-2.2,5.9-4.1
		c1.5-1.8,3-4.4,3.7-7c0.7-2.6,1.1-5.9,1.1-8.9c0-3-0.4-5.5-1.1-8.1c-0.7-2.6-1.8-4.4-3.7-5.9s-3.3-2.6-5.5-3.3
		C184.9,494.2,182.7,493.8,180.4,493.8z"/>
	<path d="M215.2,538.5c1.5-20.7,2.2-37.3,2.6-49.9h4.4c1.1,0,2.6,0,4.4,0l-1.1,10c0.7-1.5,1.5-2.6,1.8-3.3s1.1-1.5,1.8-2.2
		c0.7-0.7,1.8-1.5,3-2.2c1.1-0.7,2.6-1.5,4.1-1.8c1.5-0.4,3-0.7,4.4-1.1c1.5-0.4,3-0.4,4.8-0.4c3,0,5.5,0.4,8.1,1.1
		c2.6,0.7,4.8,1.8,6.7,3.3c1.8,1.5,3,3.3,3.3,5.2c0.7,1.8,0.7,4.1,0.7,6.3c0,0.4,0,1.1,0,2.6c0,1.1,0,3-0.4,4.8l-1.1,20.7
		c0,1.8,0,4.4,0,7.4c-1.5,0-3,0-4.1,0c-1.5,0-3,0-4.4,0c0.4-4.1,0.7-7.8,0.7-11.5l0.7-11.5c0.4-4.1,0.4-7,0.4-8.9c0-3-0.4-5.2-1.5-7
		c-1.1-1.8-2.6-3-4.8-4.1c-2.2-1.1-4.4-1.5-7.4-1.5c-3.7,0-7,0.7-10,2.6c-2.6,1.8-4.4,4.1-5.9,7c-1.1,2.2-1.5,5.5-1.8,9.6
		c-0.4,5.2-0.7,13.3-1.1,24.4c-1.8,0-3.3,0-4.4,0C218.9,538.5,217,538.5,215.2,538.5z"/>
	<path d="M302.4,538.5l1.1-18.5l1.5-34.8v-7.4c0-1.8,0-4.1,0-6.7c7.4,0,15.2,0,22.9,0h15.5h5.2c-0.4,2.2-0.4,4.4-0.4,7l-4.4-0.4
		c-1.1,0-3,0-5.5,0s-5.2,0-7.8,0c-7.8,0-13.3,0-16.3,0l-0.7,22.9c5.2,0,9.6,0,13.7,0c4.4,0,10,0,17.4-0.4c-0.4,2.2-0.4,4.4-0.4,6.7
		h-17c-3.3,0-7.8,0-13.7,0.4l-0.7,24.4h5.2c9.2,0,15.5,0,18.5,0c3,0,6.7-0.4,10.7-0.4c-0.4,2.6-0.4,4.8-0.4,7c-7.8,0-14.4,0-20,0
		H302.4z"/>
	<path d="M372,538.5l-1.8-4.8c-0.7-1.5-1.8-5.2-4.1-11.1l-12.2-34c1.8,0,3.7,0,4.8,0s2.6,0,4.4,0l1.1,3.3c0.4,1.1,0.7,2.6,1.5,4.8
		l11.5,34.4l15.5-37.7l1.8-4.8c1.8,0,3.3,0,4.8,0c1.1,0,2.6,0,4.8,0l-6.3,13.7l-12.9,28.8l-3.3,7.4c-2.2,0-3.7,0-4.8,0
		S373.8,538.5,372,538.5z"/>
	<path d="M448.9,530.8c-0.4,1.8-0.7,4.1-1.1,7c-3.3,0.7-5.9,1.5-8.1,1.5c-2.2,0.4-4.8,0.4-7,0.4c-4.1,0-7.8-0.4-11.1-1.5
		c-3.3-1.1-5.9-2.6-8.5-5.2c-2.2-2.6-4.1-5.2-5.2-8.5c-1.1-3.3-1.5-6.7-1.5-10c0-4.8,1.1-9.6,3-13.7s4.8-7.4,8.5-10
		c3.7-2.6,8.5-3.7,14.4-3.7c3,0,5.9,0.4,8.5,1.5c2.6,1.1,5.2,2.2,6.7,4.1c1.8,1.8,3.3,4.1,4.1,6.7c1.1,2.6,1.5,5.5,1.5,8.5
		c0,1.1,0,2.2-0.4,3.3h-37.7c0,1.8-0.4,3.3-0.4,4.1c0,3.3,0.7,6.7,2.2,9.6c1.5,3,3.7,5.2,6.3,6.7c3,1.5,5.9,2.2,9.6,2.2
		C437.8,534.1,442.9,533,448.9,530.8z M416,507.5h29.2c0-2.2,0-3.7-0.4-4.8c-0.4-1.1-0.7-2.2-1.1-3.7c-0.7-1.1-1.5-2.2-2.6-3.3
		c-1.1-0.7-2.2-1.5-3.7-2.2c-1.5-0.7-3-0.7-4.8-0.7s-3.7,0.4-5.2,0.7c-1.8,0.4-3.3,1.1-4.4,2.2c-1.5,0.7-2.2,1.8-3.3,3.3
		c-1.1,1.5-1.5,2.6-1.8,3.7C416.7,503.8,416.3,505.6,416,507.5z"/>
	<path d="M461.4,538.5c1.5-20.7,2.2-37.3,2.6-49.9h4.4c1.1,0,2.6,0,4.4,0l-0.7,10c0.7-1.5,1.5-2.6,1.8-3.3c0.4-0.7,1.1-1.5,1.8-2.2
		s1.8-1.5,3-2.2c1.1-0.7,2.6-1.5,4.1-1.8c1.5-0.4,3-0.7,4.4-1.1c1.5-0.4,3-0.4,4.8-0.4c3,0,5.5,0.4,8.1,1.1s4.8,1.8,6.7,3.3
		c1.8,1.5,3,3.3,3.3,5.2c0.7,1.8,0.7,4.1,0.7,6.3c0,0.4,0,1.1,0,2.6c0,1.1,0,3-0.4,4.8l-1.1,20.7c0,1.8,0,4.4,0,7.4
		c-1.5,0-3,0-4.1,0c-1.5,0-3,0-4.4,0c0.4-4.1,0.7-7.8,0.7-11.5l0.7-11.5c0.4-4.1,0.4-7,0.4-8.9c0-3-0.4-5.2-1.5-7
		c-1.1-1.8-2.6-3-4.8-4.1s-4.4-1.5-7.4-1.5c-3.7,0-7,0.7-10,2.6c-2.6,1.8-4.4,4.1-5.9,7c-1.1,2.2-1.5,5.5-1.8,9.6
		c-0.4,5.2-0.7,13.3-1.1,24.4c-1.8,0-3.3,0-4.4,0C465.1,538.5,463.7,538.5,461.4,538.5z"/>
	<path d="M547.6,532.2c-0.4,1.5-0.7,3.7-1.1,6.3c-2.2,0.4-4.1,0.7-5.2,1.1c-1.5,0-2.6,0.4-3.7,0.4c-3,0-5.2-0.4-7-1.1
		c-1.8-0.7-3.3-1.8-4.1-3.7c-0.7-1.8-1.5-3.7-1.5-6.7c0-0.4,0-1.1,0-1.8c0-0.7,0.4-4.1,0.4-9.6l1.1-22.2h-6.7c0-1.5,0.4-3.3,0.4-5.9
		h6.7c0-1.8,0.4-4.8,0.4-9.2c3-0.7,5.5-1.1,7.8-1.8c-0.4,4.8-0.4,8.5-0.4,11.1h13.7c0,2.2-0.4,4.1-0.4,5.9h-13.7l-1.5,27.7v2.2
		c0,2.2,0.4,4.1,0.7,5.5c0.4,1.5,1.5,2.2,2.6,2.6c1.1,0.4,2.2,0.7,3.3,0.7c0.7,0,1.8,0,2.6-0.4C543.5,533,545.4,532.6,547.6,532.2z"
		/>
	<path d="M552.8,537.8l-0.4-3.7c0-0.4,0-1.5-0.4-3.7c5.2,2.2,9.6,3.3,14.1,3.3c2.2,0,4.1-0.4,5.5-0.7c1.5-0.7,2.6-1.5,3.3-2.6
		c0.7-1.1,1.1-2.2,1.1-3.7c0-0.7,0-1.5-0.4-2.2c-0.4-0.7-0.4-1.5-1.1-1.8c-0.4-0.7-1.1-1.5-1.8-2.2c-0.7-0.7-2.6-2.2-5.2-4.4
		c-2.6-2.2-4.8-3.7-5.9-5.2c-1.5-1.1-2.6-2.6-3.3-3.7c-0.7-1.1-1.8-2.6-2.2-3.7s-0.7-2.6-0.7-4.1c0-2.2,0.7-4.1,1.8-6.3
		c1.5-1.8,3.3-3.3,5.9-4.4c2.6-1.1,5.5-1.5,8.9-1.5c3.7,0,7.8,0.4,12.6,1.5c0,2.6,0.4,4.8,0.4,7c-3.7-1.5-7.4-2.2-10.7-2.2
		c-1.8,0-3.7,0.4-5.5,0.7c-1.5,0.4-3,1.1-3.7,2.2c-0.7,1.1-1.1,2.2-1.1,3.3c0,0.7,0,1.5,0.4,2.2s0.7,1.5,1.5,2.2
		c0.7,0.7,1.5,1.8,2.6,2.6s3,2.2,5.5,4.8c3,2.2,4.8,4.1,5.9,5.2c1.1,1.1,1.8,2.2,2.6,3.3c0.7,1.1,1.5,2.2,1.5,3.3
		c0.4,1.1,0.4,2.2,0.4,3.3c0,2.2-0.7,4.4-2.2,6.3c-1.5,1.8-3.3,3.3-5.9,4.4c-2.6,1.1-5.5,1.5-9.2,1.5c-1.5,0-3,0-4.8-0.4
		c-1.8,0-3.7-0.4-4.8-0.7C556.5,538.5,554.6,538.2,552.8,537.8z"/>
</g>
<polygon id="triangle" fill="#F05223" points="270.6,327 7.8,375.8 144.2,467.5 "/>
</svg>
